# xmcd
#
# Track frame offsets: 
#        150
#        11885
#        27402
#        38062
#        51110
#        63250
#        76372
#        89025
#        100217
#        111727
#        123860
#        137607
#        150680
#        162467
#        172602
#        186070
#        199150
#        211315
#
# Disc length: 2980 seconds
#
# Revision: 3
# Processed by: cddbd v1.5.2PL0 Copyright (c) Steve Scherf et al.
# Submitted via: ExactAudioCopyFreeDBPlugin 1.0
#
DISCID=f50ba212
DTITLE=Various Artist - The World Of Country Music
DYEAR=1900
DGENRE=Country
TTITLE0=Jim Reeves - Welcome To My World
TTITLE1=Hoyt Axton - Evangelina
TTITLE2=Ricky Nelson - Travelin' Man
TTITLE3=Kenny Rogers - Ruby, Don't Take Your Love To Town
TTITLE4=Frankie Laine - High Noon
TTITLE5=Lynn Anderson - Rose Garden
TTITLE6=Charlie Rich - A Very Special Love Song
TTITLE7=Patsy Cline - Stop The World
TTITLE8=Freddy Fender - Before The Next Teardrop Falls
TTITLE9=Tammy Wynette - Stand By Your Man
TTITLE10=The Kingston Trio - Where Have All The Flowers Gone
TTITLE11=Roy Orbison - In Dreams
TTITLE12=Sutherland Brothers and Quiver - Arms Of Mary
TTITLE13=Ned Miller - From A Jack To A King
TTITLE14=Patti Page - Tennessee Waltz
TTITLE15=Freddy Fender - Wasted Days And Wasted Nights
TTITLE16=Frankie Laine - Answer Me
TTITLE17=Jim Reeves - I Love You Because
EXTD=ID3G: 2
EXTT0=
EXTT1=
EXTT2=
EXTT3=
EXTT4=
EXTT5=
EXTT6=
EXTT7=
EXTT8=
EXTT9=
EXTT10=
EXTT11=
EXTT12=
EXTT13=
EXTT14=
EXTT15=
EXTT16=
EXTT17=
PLAYORDER=
